<svg xmlns="http://www.w3.org/2000/svg" width="262" height="165" viewBox="0 0 262 165">
<rect width="100%" height="100%" fill="white"/>
<rect x="36" y="0" width="2" height="125" fill="black"/>
<rect x="40" y="0" width="2" height="125" fill="black"/>
<rect x="44" y="0" width="2" height="110" fill="black"/>
<rect x="52" y="0" width="2" height="110" fill="black"/>
<rect x="54" y="0" width="2" height="110" fill="black"/>
<rect x="58" y="0" width="2" height="110" fill="black"/>
<rect x="60" y="0" width="2" height="110" fill="black"/>
<rect x="66" y="0" width="2" height="110" fill="black"/>
<rect x="68" y="0" width="2" height="110" fill="black"/>
<rect x="76" y="0" width="2" height="110" fill="black"/>
<rect x="78" y="0" width="2" height="110" fill="black"/>
<rect x="82" y="0" width="2" height="110" fill="black"/>
<rect x="86" y="0" width="2" height="110" fill="black"/>
<rect x="92" y="0" width="2" height="110" fill="black"/>
<rect x="94" y="0" width="2" height="110" fill="black"/>
<rect x="96" y="0" width="2" height="110" fill="black"/>
<rect x="102" y="0" width="2" height="110" fill="black"/>
<rect x="110" y="0" width="2" height="110" fill="black"/>
<rect x="114" y="0" width="2" height="110" fill="black"/>
<rect x="118" y="0" width="2" height="110" fill="black"/>
<rect x="120" y="0" width="2" height="110" fill="black"/>
<rect x="122" y="0" width="2" height="110" fill="black"/>
<rect x="124" y="0" width="2" height="110" fill="black"/>
<rect x="128" y="0" width="2" height="125" fill="black"/>
<rect x="132" y="0" width="2" height="125" fill="black"/>
<rect x="136" y="0" width="2" height="110" fill="black"/>
<rect x="140" y="0" width="2" height="110" fill="black"/>
<rect x="150" y="0" width="2" height="110" fill="black"/>
<rect x="152" y="0" width="2" height="110" fill="black"/>
<rect x="158" y="0" width="2" height="110" fill="black"/>
<rect x="160" y="0" width="2" height="110" fill="black"/>
<rect x="164" y="0" width="2" height="110" fill="black"/>
<rect x="166" y="0" width="2" height="110" fill="black"/>
<rect x="168" y="0" width="2" height="110" fill="black"/>
<rect x="174" y="0" width="2" height="110" fill="black"/>
<rect x="178" y="0" width="2" height="110" fill="black"/>
<rect x="186" y="0" width="2" height="110" fill="black"/>
<rect x="192" y="0" width="2" height="110" fill="black"/>
<rect x="202" y="0" width="2" height="110" fill="black"/>
<rect x="206" y="0" width="2" height="110" fill="black"/>
<rect x="214" y="0" width="2" height="110" fill="black"/>
<rect x="220" y="0" width="2" height="125" fill="black"/>
<rect x="224" y="0" width="2" height="125" fill="black"/>
<text x="26" y="145" font-family="monospace" font-size="18">8</text>
<text x="64" y="145" font-family="monospace" font-size="18">410076</text>
<text x="158" y="145" font-family="monospace" font-size="18">610737</text>
</svg>